<?xml version="1.0" encoding="UTF-8"?>
<svg width="512" height="512" viewBox="0 0 512 512" xmlns="http://www.w3.org/2000/svg">
  <!-- Background circle with cool blue gradient -->
  <defs>
    <linearGradient id="bgGradient" x1="0%" y1="0%" x2="100%" y2="100%">
      <stop offset="0%" style="stop-color:#1e3c72;stop-opacity:1" />
      <stop offset="50%" style="stop-color:#2a5298;stop-opacity:1" />
      <stop offset="100%" style="stop-color:#4facfe;stop-opacity:1" />
    </linearGradient>
  </defs>
  
  <!-- Background circle -->
  <circle cx="256" cy="256" r="240" fill="url(#bgGradient)" stroke="#ffffff" stroke-width="4"/>
  
  <!-- Rocket body -->
  <ellipse cx="256" cy="280" rx="60" ry="120" fill="#ffffff"/>
  
  <!-- Rocket nose cone -->
  <path d="M196 160 L256 120 L316 160 L256 200 Z" fill="#ffffff"/>
  
  <!-- Rocket fins -->
  <path d="M196 360 L176 420 L216 400 L196 360 Z" fill="#ffffff"/>
  <path d="M316 360 L336 420 L296 400 L316 360 Z" fill="#ffffff"/>
  
  <!-- Rocket windows -->
  <circle cx="256" cy="240" r="12" fill="#1e3c72"/>
  <circle cx="256" cy="280" r="12" fill="#1e3c72"/>
  <circle cx="256" cy="320" r="12" fill="#1e3c72"/>
  
  <!-- Rocket flame -->
  <path d="M236 400 L256 440 L276 400 L256 380 Z" fill="#ff6b35"/>
  <path d="M246 400 L256 430 L266 400 L256 385 Z" fill="#ff8c00"/>
  
  <!-- Stars -->
  <circle cx="120" cy="120" r="3" fill="#ffffff"/>
  <circle cx="380" cy="140" r="2" fill="#ffffff"/>
  <circle cx="140" cy="380" r="2" fill="#ffffff"/>
  <circle cx="360" cy="360" r="3" fill="#ffffff"/>
  <circle cx="80" cy="280" r="2" fill="#ffffff"/>
  <circle cx="420" cy="320" r="2" fill="#ffffff"/>
</svg>